<svg id="Calque_1" data-name="Calque 1" xmlns="http://www.w3.org/2000/svg" viewBox="0 0 849.71 218.49"><defs><style>.cls-1{fill:#ff79da;}.cls-2{fill:#fefefe;}</style></defs><path d="M478.79,96.9c-.1-5.72,2.58-9.89,8.18-11.39a42.65,42.65,0,0,1,10.33-.93q40.94-.42,81.89-.66c7.53-.06,14.84-1.82,22.23-3,9.53-1.47,16,2.48,17,10.13.91,7.19-4,12-13.36,13.83-22,4.4-44.16,3.8-66.37,3.88H496.14a38.46,38.46,0,0,1-8.76-.79C481.7,106.63,478.89,102.61,478.79,96.9Z"/><path d="M649.7,85.09c-4.8-4.73-4.94-12.92.43-17.1a44.49,44.49,0,0,1,20.38-8.72c7.15-1.13,13.06,4.76,12.88,13.18C682.62,82,673.12,82.87,666,86.38,660.4,89.17,654.77,90,649.7,85.09Z"/><path class="cls-1" d="M819,7.05q-392.71.18-785.38.1c-1.88,0-3.76-.1-5.63,0C15.85,8,11.13,16.92,17.35,27.3A129.75,129.75,0,0,0,44.94,59.51c64.43,54.85,137.41,90.92,222.45,99.88,3.27.36,5,1.15,4.7,4.7a67.44,67.44,0,0,0,0,7.25c.5,24.55,15.66,39.87,40.19,40.68H537.37c21,0,35.77-9.86,40.85-27.07A57.36,57.36,0,0,0,580,165c-.26-4.18,1.27-5.49,5.41-5.69A231.48,231.48,0,0,0,625,153.38C678.87,141,727.88,117.75,773.18,86.54c25.23-17.4,48.71-36.8,64.55-63.78V14.7C833.11,8.14,826.55,7.05,819,7.05Zm-60.13,60c-47.54,31.87-98.57,55.72-155.31,66a232.13,232.13,0,0,1-40.78,3.21q-136.63.09-273.29.06c-35.26,0-69-7.53-101.71-20.09C141.51,98.41,98.6,74.83,61.19,41.93l-9.91-8.72c.42-.52.85-1,1.27-1.53H801c-13,14.67-27.36,25.45-42.17,35.4ZM296.21,163.43c1.09-4.68,4.54-2.91,7-2.93,28.64-.12,57.3-.08,86-.08H427c40.17,0,80.34.22,120.49-.2,7.39-.06,8.92,2.16,8.62,9-.64,13.71-5.17,18.59-19.2,18.59q-110.86.06-221.73,0C300,187.79,292.76,178.18,296.21,163.43Z"/><path class="cls-2" d="M618.39,91.1c.91,7.19-4,12-13.36,13.83-22,4.4-44.16,3.8-66.37,3.88H496.11a38.46,38.46,0,0,1-8.76-.79c-5.65-1.35-8.46-5.37-8.56-11.08S481.37,87,487,85.51a42.65,42.65,0,0,1,10.33-.93q40.94-.42,81.89-.66c7.53-.06,14.84-1.82,22.23-3C611,79.5,617.43,83.45,618.39,91.1Z"/><path class="cls-2" d="M683.39,72.45C682.62,82,673.12,82.87,666,86.38c-5.61,2.79-11.24,3.65-16.31-1.29-4.8-4.73-4.94-12.92.43-17.1a44.49,44.49,0,0,1,20.38-8.72C677.66,58.14,683.57,64,683.39,72.45Z"/><path class="cls-1" d="M605,104.93c-22,4.4-44.16,3.8-66.37,3.88H496.08a38.46,38.46,0,0,1-8.76-.79c-5.65-1.35-8.46-5.37-8.56-11.08S481.37,87,487,85.51a42.65,42.65,0,0,1,10.33-.93q40.94-.42,81.89-.66c7.53-.06,14.84-1.82,22.23-3,9.53-1.47,16,2.48,17,10.13C619.3,98.29,614.34,103.05,605,104.93Z"/><path class="cls-1" d="M683.39,72.45C682.62,82,673.12,82.87,666,86.38c-5.61,2.79-11.24,3.65-16.31-1.29-4.8-4.73-4.94-12.92.43-17.1a44.49,44.49,0,0,1,20.38-8.72C677.66,58.14,683.57,64,683.39,72.45Z"/></svg>